<svg width="16" height="16" viewBox="0 0 16 16">
  <g fill="none" fillRule="evenodd">
    <path d="M0 0h16v16H0z" />
    <path fill="currentColor" fillRule="nonzero" d="M7.193 10.86c.26.26.68.26.94 0l2.394-2.393c.26-.26.26-.68 0-.94L8.133 5.133a.664.664 0 1 0-.94.94l1.254 1.26h-5.78C2.3 7.333 2 7.633 2 8c0 .367.3.667.667.667h5.78L7.193 9.92a.67.67 0 0 0 0 .94zM12.667 2H3.333C2.593 2 2 2.6 2 3.333v2C2 5.7 2.3 6 2.667 6c.366 0 .666-.3.666-.667V4c0-.367.3-.667.667-.667h8c.367 0 .667.3.667.667v8c0 .367-.3.667-.667.667H4A.669.669 0 0 1 3.333 12v-1.333c0-.367-.3-.667-.666-.667-.367 0-.667.3-.667.667v2C2 13.4 2.6 14 3.333 14h9.334C13.4 14 14 13.4 14 12.667V3.333C14 2.6 13.4 2 12.667 2z" />
  </g>
</svg>