<svg width="24" height="24" viewBox="0 0 24 24" fill="none" xmlns="http://www.w3.org/2000/svg">
<path fill-rule="evenodd" clip-rule="evenodd" d="M15.5 7C15.5 8.933 13.933 10.5 12 10.5C10.067 10.5 8.5 8.933 8.5 7C8.5 5.067 10.067 3.5 12 3.5C13.933 3.5 15.5 5.067 15.5 7ZM17 7C17 9.76142 14.7614 12 12 12C9.23858 12 7 9.76142 7 7C7 4.23858 9.23858 2 12 2C14.7614 2 17 4.23858 17 7ZM4.54286 23.2105C4.54286 18.9957 7.88153 15.5789 12 15.5789C16.1185 15.5789 19.4571 18.9957 19.4571 23.2105C19.4571 23.6465 19.8025 24 20.2286 24C20.6546 24 21 23.6465 21 23.2105C21 18.1237 16.9706 14 12 14C7.02944 14 3 18.1237 3 23.2105C3 23.6465 3.34538 24 3.77143 24C4.19748 24 4.54286 23.6465 4.54286 23.2105Z" fill="currentColor"/>
</svg>
